PathFileType	4	(X/Y/Z)	markers_results_mono.trc
DataRate	CameraRate	NumFrames	NumMarkers	Units	OrigDataRate	OrigDataStartFrame	OrigNumFrames
12.500000	12.500000	10	22	m	12.500000	377	3015
Frame#	Time	Nose			Neck			LShoulder			RShoulder			LElbow			RElbow			LWrist			RWrist			LHip			RHip			LKnee			RKnee			LAnkle			RAnkle			LEye			REye			LThumb			LIndex			LPinky			RThumb			RIndex			RPinky
		X1	Y1	Z1	X2	Y2	Z2	X3	Y3	Z3	X4	Y4	Z4	X5	Y5	Z5	X6	Y6	Z6	X7	Y7	Z7	X8	Y8	Z8	X9	Y9	Z9	X10	Y10	Z10	X11	Y11	Z11	X12	Y12	Z12	X13	Y13	Z13	X14	Y14	Z14	X15	Y15	Z15	X16	Y16	Z16	X17	Y17	Z17	X18	Y18	Z18	X19	Y19	Z19	X20	Y20	Z20	X21	Y21	Z21	X22	Y22	Z22

377	30.080000	0.406219	-1.364805	0.310280	0.270547	-1.289099	0.139161	0.330036	-1.323413	-0.055934	0.211059	-1.254786	0.334255	0.225469	-1.096946	-0.285372	-0.051922	-1.071274	0.485139	0.325826	-0.808181	-0.263905	0.016605	-0.941784	0.740938	0.038128	-0.695380	-0.129312	-0.015308	-0.683845	0.138084	0.097661	-0.270436	-0.146784	-0.173515	-0.285529	0.148515	-0.208382	0.032550	-0.174260	-0.360867	0.027603	0.090238	0.406219	-1.417304	0.262781	0.406219	-1.422304	0.340280	0.325826	-0.667625	-0.189928	0.325826	-0.642966	-0.207189	0.325826	-0.660227	-0.278701	0.016605	-0.859871	0.866368	0.016605	-0.882909	0.899645	0.016605	-0.862431	0.866368
378	30.160000	0.410051	-1.355908	0.290526	0.271454	-1.280954	0.126974	0.326892	-1.309133	-0.071595	0.216016	-1.252774	0.325542	0.208944	-1.079918	-0.297539	-0.042298	-1.072220	0.483467	0.307917	-0.792684	-0.283686	0.033366	-0.940769	0.737623	0.032749	-0.678780	-0.131158	-0.010557	-0.670134	0.139701	0.090112	-0.251196	-0.149337	-0.155518	-0.272919	0.167098	-0.220944	0.036943	-0.176101	-0.351799	0.027142	0.106098	0.410051	-1.405189	0.241245	0.410051	-1.410117	0.320094	0.307917	-0.645476	-0.212536	0.307917	-0.630755	-0.234617	0.307917	-0.657743	-0.303314	0.033366	-0.857851	0.868282	0.033366	-0.882978	0.946175	0.033366	-0.860364	0.878333
379	30.240000	0.413393	-1.347598	0.266326	0.271400	-1.271651	0.111438	0.321134	-1.293082	-0.089752	0.221667	-1.250220	0.312629	0.189654	-1.061729	-0.310068	-0.033488	-1.069219	0.471624	0.287137	-0.777118	-0.302601	0.049518	-0.931569	0.719827	0.027229	-0.661734	-0.132577	-0.005719	-0.655253	0.140971	0.086686	-0.234844	-0.153330	-0.142139	-0.260685	0.178543	-0.229873	0.037171	-0.178901	-0.346980	0.025911	0.114385	0.413393	-1.397831	0.216093	0.413393	-1.405366	0.298978	0.287137	-0.627547	-0.227815	0.287137	-0.617897	-0.254352	0.287137	-0.651671	-0.319488	0.049518	-0.838066	0.844497	0.049518	-0.856247	0.883456	0.049518	-0.843261	0.836705
380	30.320000	0.416140	-1.340680	0.237889	0.270670	-1.261786	0.092906	0.313307	-1.276039	-0.110527	0.228033	-1.247532	0.296340	0.169106	-1.042655	-0.323122	-0.026063	-1.062084	0.448396	0.265081	-0.761571	-0.319213	0.063081	-0.911596	0.686208	0.021314	-0.645707	-0.133682	-0.000415	-0.640618	0.142098	0.086508	-0.221632	-0.159408	-0.131362	-0.249177	0.184125	-0.235070	0.032733	-0.183500	-0.344781	0.022571	0.115190	0.416140	-1.390314	0.183291	0.416140	-1.400241	0.270151	0.265081	-0.615014	-0.254344	0.265081	-0.600599	-0.275967	0.265081	-0.639040	-0.338434	0.063081	-0.815609	0.799876	0.063081	-0.830765	0.827662	0.063081	-0.823187	0.784721
381	30.400000	0.418947	-1.335140	0.207650	0.269518	-1.252880	0.073671	0.303435	-1.260184	-0.131844	0.235601	-1.245576	0.279187	0.147171	-1.025166	-0.335368	-0.018313	-1.052482	0.415970	0.242208	-0.748370	-0.331137	0.073643	-0.878750	0.636977	0.014735	-0.632012	-0.134654	0.005641	-0.627607	0.143360	0.087347	-0.212527	-0.167597	-0.123689	-0.238969	0.185809	-0.239035	0.022691	-0.189888	-0.344611	0.017264	0.111933	0.418947	-1.382829	0.152808	0.418947	-1.394751	0.236263	0.242208	-0.594627	-0.260179	0.242208	-0.580435	-0.283832	0.242208	-0.613549	-0.342964	0.073643	-0.782045	0.746080	0.073643	-0.796922	0.765917	0.073643	-0.794443	0.718804
382	30.480000	0.423302	-1.329378	0.178747	0.269615	-1.244926	0.056332	0.293348	-1.246687	-0.151454	0.245883	-1.243164	0.264117	0.125737	-1.011276	-0.346111	-0.007845	-1.041618	0.385052	0.222216	-0.739650	-0.337715	0.082187	-0.834600	0.576318	0.007605	-0.621195	-0.135549	0.012592	-0.616537	0.144831	0.089255	-0.207365	-0.178569	-0.118720	-0.231315	0.184903	-0.241530	0.006416	-0.198221	-0.346006	0.009186	0.106090	0.423302	-1.374290	0.124853	0.423302	-1.387764	0.207940	0.222216	-0.597094	-0.261982	0.222216	-0.583729	-0.288711	0.222216	-0.621595	-0.357762	0.082187	-0.746752	0.691907	0.082187	-0.755999	0.698843	0.082187	-0.751376	0.668790
383	30.560000	0.429999	-1.322869	0.154910	0.271941	-1.238485	0.043816	0.284666	-1.237383	-0.166442	0.259215	-1.239586	0.254073	0.106578	-1.003209	-0.353367	0.006146	-1.029977	0.364575	0.207660	-0.738251	-0.337716	0.091478	-0.787756	0.511437	0.000296	-0.613410	-0.136176	0.020369	-0.607537	0.146253	0.094363	-0.208802	-0.191836	-0.116370	-0.227943	0.180277	-0.241413	-0.019282	-0.206859	-0.349626	-0.003633	0.096522	0.429999	-1.372079	0.101226	0.429999	-1.383263	0.183988	0.207660	-0.596624	-0.259035	0.207660	-0.585384	-0.286011	0.207660	-0.614609	-0.357948	0.091478	-0.670919	0.589329	0.091478	-0.679573	0.613129	0.091478	-0.688228	0.593656
384	30.640000	0.442794	-1.312731	0.138162	0.278618	-1.233229	0.037761	0.279341	-1.232895	-0.175837	0.277894	-1.233564	0.251359	0.090986	-1.000568	-0.356656	0.027385	-1.014329	0.357292	0.200586	-0.743310	-0.332190	0.110405	-0.745461	0.446870	-0.007213	-0.608355	-0.137025	0.028863	-0.600005	0.147947	0.103781	-0.216866	-0.206889	-0.122485	-0.230113	0.171464	-0.237015	-0.052067	-0.214374	-0.358653	-0.020203	0.083397	0.442794	-1.362496	0.086324	0.442794	-1.372864	0.165118	0.200586	-0.600705	-0.249181	0.200586	-0.600705	-0.261951	0.200586	-0.615604	-0.334318	0.110405	-0.590191	0.446870	0.110405	-0.563632	0.502032	0.110405	-0.592234	0.444827
385	30.720000	0.465905	-1.296302	0.130969	0.292277	-1.227801	0.040591	0.281329	-1.232878	-0.178507	0.303224	-1.222723	0.259689	0.081147	-1.000193	-0.354868	0.056577	-0.990092	0.367928	0.200003	-0.746915	-0.323604	0.139755	-0.705369	0.394718	-0.013913	-0.606386	-0.138720	0.036066	-0.593766	0.150051	0.118396	-0.228820	-0.222086	-0.135757	-0.236162	0.156480	-0.228470	-0.080024	-0.219267	-0.372405	-0.033316	0.069597	0.465905	-1.349372	0.077900	0.465905	-1.359199	0.162418	0.200003	-0.619910	-0.228854	0.200003	-0.611846	-0.238934	0.200003	-0.609830	-0.311508	0.139755	-0.536866	0.359785	0.139755	-0.516317	0.400883	0.139755	-0.582074	0.439926
386	30.800000	0.501593	-1.269522	0.131144	0.314726	-1.220369	0.052637	0.292187	-1.236450	-0.173821	0.337264	-1.204288	0.279096	0.076096	-1.000295	-0.345388	0.098130	-0.954628	0.396032	0.203292	-0.744782	-0.315967	0.179112	-0.662800	0.359412	-0.019375	-0.606562	-0.141492	0.041453	-0.587724	0.152597	0.135675	-0.239005	-0.237903	-0.158678	-0.239627	0.134031	-0.217967	-0.093837	-0.222583	-0.391433	-0.033335	0.054398	0.501593	-1.324046	0.078567	0.501593	-1.335730	0.166195	0.203292	-0.612556	-0.218323	0.203292	-0.602384	-0.222392	0.203292	-0.598316	-0.299693	0.179112	-0.508942	0.244560	0.179112	-0.463435	0.281400	0.179112	-0.474270	0.359412
